<svg width="18" height="18" viewBox="0 0 18 18" fill="none" xmlns="http://www.w3.org/2000/svg">
<path fill-rule="evenodd" clip-rule="evenodd" d="M3.9375 6V6.97725C3.7675 6.98875 3.607 7.00475 3.456 7.02525C2.781 7.11525 2.2125 7.31025 1.761 7.761C1.3095 8.2125 1.116 8.781 1.02525 9.456C0.9375 10.1062 0.9375 10.9335 0.9375 11.9587V12.0413C0.9375 13.0665 0.9375 13.8938 1.02525 14.544C1.11525 15.219 1.31025 15.7875 1.761 16.239C2.2125 16.6905 2.781 16.884 3.456 16.9755C4.10625 17.0625 4.9335 17.0625 5.95875 17.0625H12.0413C13.0665 17.0625 13.8938 17.0625 14.544 16.9755C15.219 16.884 15.7875 16.6905 16.239 16.239C16.6905 15.7875 16.884 15.219 16.9755 14.544C17.0625 13.8938 17.0625 13.0665 17.0625 12.0413V11.9587C17.0625 10.9335 17.0625 10.1062 16.9755 9.456C16.884 8.781 16.6905 8.2125 16.239 7.761C15.7875 7.3095 15.219 7.116 14.544 7.02525C14.3841 7.00408 14.2235 6.98807 14.0625 6.97725V6C14.0625 4.65734 13.5291 3.36967 12.5797 2.42027C11.6303 1.47087 10.3427 0.9375 9 0.9375C7.65734 0.9375 6.36967 1.47087 5.42027 2.42027C4.47087 3.36967 3.9375 4.65734 3.9375 6ZM9 2.0625C7.95571 2.0625 6.95419 2.47734 6.21577 3.21577C5.47734 3.95419 5.0625 4.95571 5.0625 6V6.93975C5.3425 6.93775 5.64125 6.937 5.95875 6.9375H12.0413C12.3588 6.9375 12.6575 6.93825 12.9375 6.93975V6C12.9375 3.825 11.175 2.0625 9 2.0625ZM3.606 8.13975C3.0555 8.214 2.7645 8.34975 2.55675 8.55675C2.349 8.7645 2.214 9.0555 2.13975 9.60675C2.064 10.173 2.0625 10.9237 2.0625 12C2.0625 13.0763 2.064 13.827 2.13975 14.394C2.214 14.9445 2.34975 15.2355 2.55675 15.4432C2.7645 15.651 3.0555 15.786 3.60675 15.8602C4.17225 15.936 4.92375 15.9375 6 15.9375H12C13.0763 15.9375 13.827 15.936 14.394 15.8602C14.9445 15.786 15.2355 15.6502 15.4432 15.4432C15.651 15.2355 15.786 14.9445 15.8602 14.3932C15.936 13.827 15.9375 13.0763 15.9375 12C15.9375 10.9237 15.936 10.1722 15.8602 9.606C15.786 9.0555 15.6502 8.7645 15.4432 8.55675C15.2355 8.349 14.9445 8.214 14.3932 8.13975C13.827 8.064 13.0763 8.0625 12 8.0625H6C4.92375 8.0625 4.17225 8.064 3.606 8.13975Z" fill="#707070"/>
</svg>
