<svg width="75" height="74" viewBox="0 0 75 74" fill="none" xmlns="http://www.w3.org/2000/svg">
<g id="Frame 1321318379">
<g id="Group">
<g id="Vector">
<path d="M47.0911 55.853C47.0911 55.853 43.6569 57.7975 41.3017 59.0776C33.6666 63.234 29.8509 65.3127 25.5803 64.1583C21.3111 63.0062 19.1169 59.3879 14.7299 52.1537C13.322 49.8312 11.9639 47.479 10.6566 45.0984C6.58503 37.682 4.54857 33.9727 5.68551 29.6994C6.82107 25.4237 10.5291 23.1586 17.9462 18.6246C22.5003 15.8398 27.124 13.1703 31.8129 10.6187C39.448 6.46231 43.2636 4.38362 47.5342 5.53803C51.8034 6.69004 53.9976 10.3084 58.3847 17.5426C59.0888 18.7071 60.4696 21.071 61.1471 22.2445" fill="#BDBDBD" fill-opacity="0.4"/>
<path d="M47.0911 55.853C47.0911 55.853 43.6569 57.7975 41.3017 59.0776C33.6666 63.234 29.8509 65.3127 25.5803 64.1583C21.3111 63.0062 19.1169 59.3879 14.7299 52.1537C13.322 49.8312 11.9639 47.479 10.6566 45.0984C6.58503 37.682 4.54857 33.9727 5.68551 29.6994C6.82107 25.4237 10.5291 23.1586 17.9462 18.6246C22.5003 15.8398 27.124 13.1703 31.8129 10.6187C39.448 6.46231 43.2636 4.38362 47.5342 5.53803C51.8034 6.69004 53.9976 10.3084 58.3847 17.5426C59.0888 18.7071 60.4696 21.071 61.1471 22.2445" stroke="#BDBDBD" stroke-width="3.974" stroke-linecap="round" stroke-linejoin="round"/>
</g>
<path id="Vector_2" d="M54.3474 32.544C51.3193 34.2923 50.472 37.3563 48.5546 39.4002C47.7786 40.2306 47.3881 40.6473 47.3128 40.9584C47.2375 41.2696 47.3523 41.5953 47.5808 42.2504C50.0259 49.2452 56.0074 53.5672 63.5547 52.2338C64.3647 52.0912 64.7697 52.02 65.3887 51.6626C66.0029 51.3079 66.2695 50.9915 66.798 50.3614C71.725 44.4894 70.9741 37.1507 66.1367 31.5372C65.6835 31.0117 65.4588 30.7495 65.1517 30.6591C64.8446 30.5687 64.2886 30.6986 63.179 30.9568C60.4526 31.594 57.3755 30.7958 54.3474 32.544Z" fill="#BDBDBD" fill-opacity="0.4" stroke="#BDBDBD" stroke-width="3.974" stroke-linecap="round" stroke-linejoin="round"/>
<g id="Vector_3">
<path d="M19.7778 33.3824L29.2101 33.4815C34.7082 33.5385 36.3453 32.5933 39.0473 27.802L43.6777 19.5838" fill="#BDBDBD"/>
<path d="M19.7778 33.3824L29.2101 33.4815C34.7082 33.5385 36.3453 32.5933 39.0473 27.802L43.6777 19.5838" stroke="#BDBDBD" stroke-width="3.974" stroke-linecap="round" stroke-linejoin="round"/>
</g>
</g>
</g>
</svg>
